:FULLY-SPECIFIED
:DEGREES
3436
root 1.59639 15.663 -2.41056 5429.9 -97.6701 -5425.81
lowerback 3.44154 0.616332 -8.47471
upperback -1.69273 0.401606 0.397299
thorax -3.77006 0.410776 5.1494
lowerneck -15.3329 1.51074 1.87753
upperneck 19.111 2.09513 -2.8372
head 8.53584 0.766824 -1.029
rclavicle -1.59028e-014 2.98177e-016
rhumerus -37.3452 -23.7926 -73.9246
rradius 13.3031
rwrist 24.0453
rhand -28.13 -17.6249
rfingers 7.12502
rthumb -1.51145 -47.5993
lclavicle -1.59028e-014 2.98177e-016
lhumerus -19.9212 -12.3348 92.2232
lradius 35.8558
lwrist 14.9148
lhand -33.1085 16.0611
lfingers 7.12502
lthumb -6.319 45.9468
rfemur -31.3732 -0.305039 17.7449
rtibia 47.8306
rfoot -17.7288 -22.8868
rtoes -9.88425
lfemur -4.06255 -4.93941 -29.9713
ltibia 20.0949
lfoot -15.2985 10.7663
ltoes -9.82692
3437
root 1.62552 15.664 -2.41948 5430.84 -97.6733 -5426.58
lowerback 3.3884 0.645888 -8.6059
upperback -1.72396 0.436773 0.378925
thorax -3.78008 0.432396 5.20181
lowerneck -15.3556 1.48122 1.854
upperneck 19.0184 2.05528 -2.81088
head 8.507 0.750889 -1.02029
rclavicle 7.95139e-016 -7.05686e-015
rhumerus -36.7227 -23.6751 -74.3773
rradius 13.2991
rwrist 24.3908
rhand -28.358 -17.3499
rfingers 7.12502
rthumb -1.73171 -47.3226
lclavicle 7.95139e-016 -7.05686e-015
lhumerus -20.0863 -12.4026 92.2457
lradius 35.9758
lwrist 15.0851
lhand -33.1429 16.0603
lfingers 7.12502
lthumb -6.35219 45.9451
rfemur -31.677 0.0979441 17.7522
rtibia 45.4881
rfoot -17.7017 -23.0136
rtoes -9.6529
lfemur -3.29334 -4.91956 -30.0994
ltibia 19.2909
lfoot -15.1102 10.7139
ltoes -10.6879
3438
root 1.65392 15.6652 -2.43004 5431.35 -97.7216 -5426.9
lowerback 3.32947 0.69576 -8.71329
upperback -1.77279 0.500215 0.365867
thorax -3.80959 0.469003 5.2444
lowerneck -15.3492 1.42742 1.81977
upperneck 18.9002 1.98518 -2.7881
head 8.46345 0.719962 -1.01458
rclavicle -3.18055e-015 -4.17448e-015
rhumerus -36.0186 -23.6458 -74.8678
rradius 13.3015
rwrist 24.4276
rhand -28.5057 -17.3901
rfingers 7.12502
rthumb -1.87435 -47.3616
lclavicle -3.18055e-015 -4.17448e-015
lhumerus -20.2619 -12.3137 92.272
lradius 35.9019
lwrist 14.923
lhand -33.1576 16.0243
lfingers 7.12502
lthumb -6.36641 45.9087
rfemur -31.9193 0.57244 17.7778
rtibia 43.0458
rfoot -17.5963 -22.9653
rtoes -9.65756
lfemur -2.48925 -4.94504 -30.1916
ltibia 18.3731
lfoot -15.0438 10.6806
ltoes -10.482
3439
root 1.67763 15.6739 -2.44206 5432.19 -97.699 -5427.58
lowerback 3.22236 0.708509 -8.82012
upperback -1.78445 0.520744 0.346061
thorax -3.76598 0.479809 5.28292
lowerneck -15.3445 1.40256 1.83128
upperneck 18.7644 1.94854 -2.78652
head 8.41588 0.706185 -1.01951
rclavicle -1.98785e-014 -7.05686e-015
rhumerus -35.2083 -23.0087 -75.7744
rradius 13.4944
rwrist 23.7498
rhand -28.7335 -17.4003
rfingers 7.12502
rthumb -2.09437 -47.3698
lclavicle -1.98785e-014 -7.05686e-015
lhumerus -20.4871 -12.1326 92.2827
lradius 35.8894
lwrist 14.7382
lhand -33.1097 16.0972
lfingers 7.12502
lthumb -6.32015 45.9829
rfemur -32.0278 1.09495 17.6798
rtibia 40.5134
rfoot -17.4235 -22.6272
rtoes -9.82324
lfemur -1.5908 -4.86666 -30.2664
ltibia 17.37
lfoot -14.6863 10.5191
ltoes -11.3309
3440
root 1.70466 15.6856 -2.45423 5432.68 -97.6069 -5427.88
lowerback 3.15064 0.710254 -8.80141
upperback -1.81824 0.528738 0.334773
thorax -3.76164 0.483902 5.26016
lowerneck -15.3191 1.35525 1.75921
upperneck 18.6397 1.89158 -2.74011
head 8.36661 0.681226 -0.998059
rclavicle -1.43125e-014 -6.95746e-015
rhumerus -34.3368 -21.8863 -76.9464
rradius 13.8841
rwrist 22.2739
rhand -28.8738 -17.4401
rfingers 7.12502
rthumb -2.2298 -47.4082
lclavicle -1.43125e-014 -6.95746e-015
lhumerus -20.7612 -12.2728 92.3311
lradius 35.8223
lwrist 14.9895
lhand -33.1314 16.1662
lfingers 7.12502
lthumb -6.34104 46.0512
rfemur -32.0904 1.63039 17.631
rtibia 37.9047
rfoot -17.2892 -22.105
rtoes -9.97249
lfemur -0.694605 -4.84916 -30.2271
ltibia 16.2967
lfoot -14.4174 10.2753
ltoes -11.5891
3441
root 1.72735 15.6987 -2.4696 5433.45 -97.5536 -5428.43
lowerback 3.00948 0.70867 -8.86292
upperback -1.86755 0.533831 0.313281
thorax -3.73513 0.48773 5.27246
lowerneck -15.3003 1.33682 1.8008
upperneck 18.5225 1.86237 -2.7673
head 8.3237 0.669688 -1.01691
rclavicle -9.54166e-015 2.59414e-014
rhumerus -33.5614 -21.1629 -77.8478
rradius 14.1985
rwrist 21.5757
rhand -28.9991 -17.3698
rfingers 7.12502
rthumb -2.35079 -47.3366
lclavicle -9.54166e-015 2.59414e-014
lhumerus -21.0743 -12.1228 92.3481
lradius 35.6992
lwrist 14.9914
lhand -33.141 16.1553
lfingers 7.12502
lthumb -6.35034 46.0401
rfemur -32.116 2.44916 17.4294
rtibia 35.2683
rfoot -17.1615 -21.5717
rtoes -10.83
lfemur 0.235359 -4.77071 -30.2233
ltibia 15.0975
lfoot -14.0122 9.99239
ltoes -12.0792
3442
root 1.74968 15.7084 -2.48581 5434.7 -97.382 -5429.47
lowerback 2.83774 0.662959 -8.90371
upperback -1.88179 0.486706 0.301008
thorax -3.64575 0.461398 5.28641
lowerneck -15.2487 1.31993 1.77422
upperneck 18.3633 1.84343 -2.75447
head 8.26006 0.662999 -1.00973
rclavicle 0 -1.11319e-014
rhumerus -32.6753 -19.8461 -79.0367
rradius 14.6509
rwrist 20.1733
rhand -29.0427 -17.4573
rfingers 7.12502
rthumb -2.39297 -47.4236
lclavicle 0 -1.11319e-014
lhumerus -21.4058 -12.1797 92.4065
lradius 35.5107
lwrist 15.0875
lhand -33.219 15.9747
lfingers 7.12502
lthumb -6.42567 45.8572
rfemur -32.0726 3.37273 17.1224
rtibia 32.6677
rfoot -17.0687 -21.2446
rtoes -12.2762
lfemur 1.21001 -4.64807 -30.1821
ltibia 13.8294
lfoot -13.5375 9.62142
ltoes -13.231
3443
root 1.77171 15.7209 -2.50194 5435.73 -97.1572 -5430.24
lowerback 2.6816 0.614243 -8.86112
upperback -1.93615 0.437108 0.322312
thorax -3.60597 0.43587 5.2884
lowerneck -15.2458 1.27226 1.69541
upperneck 18.2734 1.79709 -2.75463
head 8.22751 0.637011 -1.00161
rclavicle -1.59028e-015 1.23246e-014
rhumerus -31.8732 -18.3507 -80.2086
rradius 15.2002
rwrist 18.607
rhand -29.2395 -17.2707
rfingers 7.12502
rthumb -2.58302 -47.2348
lclavicle -1.59028e-015 1.23246e-014
lhumerus -21.7617 -11.8294 92.4912
lradius 35.2345
lwrist 14.638
lhand -33.0943 16.0361
lfingers 7.12502
lthumb -6.30526 45.9222
rfemur -32.0522 4.63589 16.6827
rtibia 30.145
rfoot -17.258 -21.0701
rtoes -12.642
lfemur 2.2495 -4.53983 -30.059
ltibia 12.3596
lfoot -12.9116 9.13122
ltoes -13.9814
3444
root 1.78929 15.7352 -2.51933 5437.83 -96.9596 -5432.12
lowerback 2.50816 0.547752 -8.89937
upperback -1.98816 0.358146 0.259288
thorax -3.54982 0.395137 5.2488
lowerneck -15.2057 1.23956 1.76854
upperneck 18.1882 1.74614 -2.81019
head 8.19166 0.613881 -1.03784
rclavicle -7.95139e-016 1.82882e-014
rhumerus -31.1704 -16.6595 -81.5117
rradius 15.9555
rwrist 16.7248
rhand -29.2531 -17.6021
rfingers 7.12502
rthumb -2.59619 -47.566
lclavicle -7.95139e-016 1.82882e-014
lhumerus -22.1652 -11.7561 92.506
lradius 35.006
lwrist 14.8128
lhand -33.0174 16.1495
lfingers 7.12502
lthumb -6.23105 46.0379
rfemur -32.0322 6.1016 15.9653
rtibia 27.8176
rfoot -17.7412 -21.1537
rtoes -12.6972
lfemur 3.38142 -4.53056 -30.0601
ltibia 10.8104
lfoot -12.2626 8.66801
ltoes -14.7137
3445
root 1.80497 15.7533 -2.53841 5439.2 -96.7465 -5433.3
lowerback 2.34083 0.516525 -8.8947
upperback -2.00516 0.332981 0.271371
thorax -3.46883 0.37952 5.26078
lowerneck -15.1996 1.18359 1.71616
upperneck 18.1124 1.69275 -2.86367
head 8.1639 0.580682 -1.05276
rclavicle 7.95139e-016 -1.68967e-014
rhumerus -30.4505 -14.9377 -82.6624
rradius 16.723
rwrist 14.6519
rhand -29.3509 -17.5742
rfingers 7.12502
rthumb -2.69056 -47.5369
lclavicle 7.95139e-016 -1.68967e-014
lhumerus -22.5945 -11.6394 92.6272
lradius 34.6414
lwrist 14.2826
lhand -32.8261 16.3247
lfingers 7.12502
lthumb -6.04628 46.2185
rfemur -32.0267 7.93646 15.206
rtibia 25.7351
rfoot -17.8936 -21.7149
rtoes -13.5679
lfemur 4.60764 -4.53532 -29.965
ltibia 9.19355
lfoot -11.5711 8.22787
ltoes -15.3491
3446
root 1.82038 15.7592 -2.55692 5441.02 -96.5512 -5434.93
lowerback 2.13882 0.473216 -8.84601
upperback -2.02774 0.293856 0.221851
thorax -3.37074 0.354091 5.18383
lowerneck -15.2222 1.14439 1.7423
upperneck 18.083 1.63948 -2.8961
head 8.15723 0.554511 -1.07377
rclavicle -7.95139e-015 1.83876e-014
rhumerus -29.8882 -13.3789 -83.7018
rradius 17.5671
rwrist 13.2983
rhand -29.4437 -17.4739
rfingers 7.12502
rthumb -2.7802 -47.4355
lclavicle -7.95139e-015 1.83876e-014
lhumerus -22.995 -11.3936 92.669
lradius 34.2118
lwrist 13.9774
lhand -32.6078 16.4185
lfingers 7.12502
lthumb -5.83554 46.3182
rfemur -32.184 9.83525 14.3198
rtibia 24.0226
rfoot -18.5439 -22.6341
rtoes -13.8093
lfemur 5.86277 -4.55999 -29.9377
ltibia 7.50404
lfoot -10.7569 7.86154
ltoes -16.3046
3447
root 1.83141 15.7679 -2.57608 5443.02 -96.4252 -5436.8
lowerback 1.97688 0.435384 -8.88969
upperback -2.03077 0.256791 0.200354
thorax -3.27678 0.332016 5.18813
lowerneck -15.2366 1.1137 1.67629
upperneck 18.0466 1.61841 -2.92163
head 8.14681 0.537862 -1.07352
rclavicle -5.56597e-015 -7.35503e-015
rhumerus -29.3474 -11.6803 -84.7113
rradius 18.5365
rwrist 11.3474
rhand -29.483 -17.6548
rfingers 7.12502
rthumb -2.8182 -47.6159
lclavicle -5.56597e-015 -7.35503e-015
lhumerus -23.4795 -11.2967 92.807
lradius 33.8323
lwrist 14.0972
lhand -32.6579 16.6026
lfingers 7.12502
lthumb -5.8839 46.5009
rfemur -32.3276 11.4928 13.4748
rtibia 22.6663
rfoot -19.2751 -23.5654
rtoes -14.3568
lfemur 7.27684 -4.53951 -29.9433
ltibia 5.64984
lfoot -9.97059 7.42915
ltoes -16.2836
